<?xml version="1.0" standalone="no"?>
<!DOCTYPE svg PUBLIC "-//W3C//DTD SVG 20010904//EN"
 "http://www.w3.org/TR/2001/REC-SVG-20010904/DTD/svg10.dtd">
<svg version="1.0" xmlns="http://www.w3.org/2000/svg"
 width="1024.000000pt" height="1024.000000pt" viewBox="0 0 1024.000000 1024.000000"
 preserveAspectRatio="xMidYMid meet">
<metadata>
Created by potrace 1.14, written by Peter Selinger 2001-2017
</metadata>
<g transform="translate(0.000000,1024.000000) scale(0.100000,-0.100000)"
fill="#000000" stroke="none">
<path d="M2560 7680 c-1409 -1409 -2560 -2566 -2558 -2571 2 -5 716 -723 1588
-1595 l1585 -1585 3 2966 2 2966 1323 -4 c727 -1 1331 -6 1342 -9 11 -3 47 -9
80 -12 290 -33 574 -117 822 -242 416 -211 743 -560 908 -969 42 -103 91 -264
100 -327 4 -23 8 -46 11 -49 2 -4 6 -24 9 -45 3 -22 8 -55 11 -74 26 -155 25
-572 -1 -715 -59 -319 -153 -561 -308 -792 -75 -111 -91 -132 -167 -217 -189
-210 -432 -377 -705 -486 -127 -50 -353 -113 -485 -134 -19 -3 -45 -8 -56 -10
-46 -9 -218 -33 -294 -40 -30 -3 -82 -8 -115 -12 -139 -13 -208 -15 -795 -20
-338 -4 -617 -8 -619 -10 -6 -5 -6 -2823 0 -2829 39 -44 865 -865 871 -865 4
0 1160 1152 2569 2561 l2561 2561 -2560 2560 -2560 2560 -2562 -2562z"/>
<path d="M4239 6898 c-1 -30 -1 -2229 0 -2246 1 -11 124 -13 694 -9 380 2 712
7 736 11 305 44 551 146 714 295 68 62 120 121 162 186 62 96 124 239 140 326
3 13 9 47 14 74 16 80 21 152 21 270 -1 138 -6 193 -34 321 -24 114 -104 291
-153 342 -7 7 -13 17 -13 21 0 16 -146 152 -210 196 -121 80 -307 156 -450
181 -14 3 -41 9 -60 14 -19 5 -60 12 -90 15 -30 4 -68 9 -85 12 -16 3 -335 7
-707 10 l-678 4 -1 -23z"/>
</g>
</svg>
